<svg height="496pt" viewBox="0 0 496 496" width="496pt" xmlns="http://www.w3.org/2000/svg"><path d="m360 240c57.34375 0 104-46.65625 104-104h-16c0 48.519531-39.480469 88-88 88zm0 0"/><path d="m360 32c-57.34375 0-104 46.65625-104 104h16c0-48.519531 39.480469-88 88-88zm0 0"/><path d="m112 400c0 13.230469 10.769531 24 24 24s24-10.769531 24-24-10.769531-24-24-24-24 10.769531-24 24zm24-8c4.414062 0 8 3.585938 8 8s-3.585938 8-8 8-8-3.585938-8-8 3.585938-8 8-8zm0 0"/><path d="m208 400c0 13.230469 10.769531 24 24 24s24-10.769531 24-24-10.769531-24-24-24-24 10.769531-24 24zm24-8c4.414062 0 8 3.585938 8 8s-3.585938 8-8 8-8-3.585938-8-8 3.585938-8 8-8zm0 0"/><path d="m280 248h-162.246094l-5.953125-25.800781c-.839843-3.632813-4.074219-6.199219-7.800781-6.199219h-32v16h25.632812l22.566407 97.800781c.761719 3.296875 3.503906 5.75 6.855469 6.152344l128.945312 15.167969v8.878906h-144v16h152c4.425781 0 8-3.574219 8-8v-24c0-4.054688-3.039062-7.472656-7.0625-7.945312l-5.3125-.621094 27.886719-76.699219c.894531-2.453125.527343-5.183594-.960938-7.320313-1.496093-2.140624-3.941406-3.414062-6.550781-3.414062zm-63.480469 82.359375-16.519531-1.945313v-64.414062h23.160156zm-32.519531-50.359375h-21.28125l-1.773438-16h23.054688zm0 16v30.527344l-16.328125-1.917969-3.175781-28.609375zm-39.160156-32 1.777344 16h-21.480469l-3.695313-16zm-16.007813 32h19.566407l2.96875 26.6875-16.824219-1.976562zm103.582031 36.230469 2.027344-20.230469h16.6875l-7.824218 21.511719zm24.53125-36.230469h-20.90625l3.199219-32h29.335938zm0 0"/><path d="m352 81.136719c-13.769531 3.574219-24 15.992187-24 30.863281 0 17.648438 14.351562 32 32 32 8.824219 0 16 7.175781 16 16s-7.175781 16-16 16-16-7.175781-16-16h-16c0 14.871094 10.230469 27.289062 24 30.863281v17.136719h16v-17.136719c13.769531-3.574219 24-15.992187 24-30.863281 0-17.648438-14.351562-32-32-32-8.824219 0-16-7.175781-16-16s7.175781-16 16-16 16 7.175781 16 16h16c0-14.871094-10.230469-27.289062-24-30.863281v-17.136719h-16zm0 0"/><path d="m440 384c-17.847656 0-33.726562 8.425781-43.992188 21.472656l-54.9375-24.417968c7.058594-19.03125 10.929688-39.597657 10.929688-61.054688 0-16.96875-2.464844-33.367188-6.96875-48.902344 4.96875.542969 9.960938.902344 14.96875.902344 74.992188 0 136-61.007812 136-136s-61.007812-136-136-136-136 61.007812-136 136c0 5.007812.359375 10 .902344 14.96875-15.535156-4.503906-31.933594-6.96875-48.902344-6.96875-24.039062 0-46.960938 4.855469-67.855469 13.625l-23.753906-53.441406c16.488281-9.757813 27.609375-27.679688 27.609375-48.183594 0-30.871094-25.128906-56-56-56s-56 25.128906-56 56 25.128906 56 56 56c4.6875 0 9.222656-.640625 13.585938-1.734375l24.101562 54.230469c-55.671875 29.59375-93.6875 88.183594-93.6875 155.503906 0 97.046875 78.953125 176 176 176 69.929688 0 130.449219-41 158.824219-100.207031l53.152343 23.621093c-2.535156 6.378907-3.976562 13.3125-3.976562 20.585938 0 30.871094 25.128906 56 56 56s56-25.128906 56-56-25.128906-56-56-56zm-424-328c0-22.054688 17.945312-40 40-40s40 17.945312 40 40-17.945312 40-40 40-40-17.945312-40-40zm224 80c0-66.167969 53.832031-120 120-120s120 53.832031 120 120-53.832031 120-120 120c-7 0-13.992188-.671875-20.839844-1.871094-17.886718-44.136718-53.152344-79.402344-97.289062-97.289062-1.199219-6.847656-1.871094-13.839844-1.871094-20.839844zm-64 344c-88.222656 0-160-71.777344-160-160s71.777344-160 160-160 160 71.777344 160 160-71.777344 160-160 160zm264 0c-22.054688 0-40-17.945312-40-40s17.945312-40 40-40 40 17.945312 40 40-17.945312 40-40 40zm0 0"/><path d="m440 448v16c13.230469 0 24-10.769531 24-24h-16c0 4.414062-3.585938 8-8 8zm0 0"/><path d="m56 64v16c13.230469 0 24-10.769531 24-24h-16c0 4.414062-3.585938 8-8 8zm0 0"/></svg>